<svg width="40" height="40" fill="none" xmlns="http://www.w3.org/2000/svg"><path d="M39.242 29.288 24.439 14.484l4.83-4.83a.598.598 0 0 0 0-.844l-2.771-2.77a.598.598 0 0 0-.506-.169l-4.744.668a.596.596 0 0 0-.34.17L18.787 8.83l-1.742-1.74a.597.597 0 0 0-.844 0l-3.628 3.628a.597.597 0 0 0 0 .844l1.74 1.74-4.83 4.831a.597.597 0 0 0 0 .845l4.81 4.809a.595.595 0 0 0 .845 0l4.828-4.83 14.803 14.803a.595.595 0 0 0 .845 0l3.629-3.63a.597.597 0 0 0 0-.843zM13.839 11.142l2.783-2.785 1.32 1.319-2.785 2.784-1.318-1.318zm.876 11.38-3.966-3.965L21.612 7.694l4.252-.599 2.138 2.137-4.828 4.828-.002.001-.001.002-8.456 8.458zm20.475 9.973-14.38-14.38 2.784-2.786 14.381 14.38-2.785 2.786zM6.154 21.842a.597.597 0 0 0-.698-.474L.87 22.24a.597.597 0 0 0 .223 1.173l4.586-.872a.598.598 0 0 0 .475-.699zM8.265 25.41 4.967 28.7a.598.598 0 0 0 .844.845l3.297-3.29a.597.597 0 0 0-.843-.845zM12.877 27.717a.596.596 0 0 0-.678.502l-.664 4.467a.597.597 0 1 0 1.18.176l.665-4.467a.597.597 0 0 0-.503-.678z" fill="#000"/></svg>