<svg width="40" height="40" fill="none" xmlns="http://www.w3.org/2000/svg"><path d="M25.103 27.133a.598.598 0 0 0-.598.598v5.465H4.988V7.447h19.516v4.544a.598.598 0 0 0 1.196 0V6.85a.598.598 0 0 0-.598-.598H4.391a.598.598 0 0 0-.598.598v26.944c0 .33.267.598.598.598h20.711c.33 0 .598-.267.598-.598v-6.062a.597.597 0 0 0-.597-.598z" fill="#000"/><path d="M36.005 7.845a.598.598 0 0 0-.257-.38l-3.002-1.979a.597.597 0 0 0-.829.17l-2.197 3.34a.604.604 0 0 0-.056.108L18.039 26.743a.61.61 0 0 0-.059.118.592.592 0 0 0-.135.286l-.755 4.509a.598.598 0 0 0 .932.588l3.744-2.616a.596.596 0 0 0 .097-.085.587.587 0 0 0 .173-.167l11.63-17.647a.618.618 0 0 0 .058-.112l2.193-3.322a.598.598 0 0 0 .087-.45zM18.909 28.032l1.572 1.036-1.976 1.38.404-2.416zm2.458.187-2-1.318 10.972-16.65 2 1.319-10.972 16.65zm11.619-17.655-2-1.318 1.601-2.432 2.003 1.32-1.604 2.43zM18.63 13.806a.598.598 0 1 0 0-1.196H7.509a.598.598 0 1 0 0 1.196H18.63zM7.647 18.73h11.12a.598.598 0 1 0 0-1.195H7.647a.598.598 0 1 0 0 1.196z" fill="#000"/></svg>