<svg width="40" height="40" fill="none" xmlns="http://www.w3.org/2000/svg"><path d="M19.95 12.17c-4.07 0-7.381 3.31-7.381 7.381 0 4.07 3.31 7.382 7.381 7.382 4.07 0 7.382-3.312 7.382-7.382s-3.312-7.382-7.382-7.382zm0 13.565a6.191 6.191 0 0 1-6.184-6.184 6.191 6.191 0 0 1 6.184-6.185 6.191 6.191 0 0 1 6.185 6.185 6.191 6.191 0 0 1-6.185 6.184z" fill="#000"/><path d="m37.995 16.559-4.775-.723a13.55 13.55 0 0 0-1.058-2.563l2.863-3.884a.599.599 0 0 0-.058-.778L31.29 4.934a.6.6 0 0 0-.779-.059l-3.87 2.854a13.537 13.537 0 0 0-2.58-1.074l-.72-4.75a.598.598 0 0 0-.591-.509h-5.2a.598.598 0 0 0-.592.51l-.718 4.75c-.892.266-1.757.627-2.58 1.073L9.789 4.875a.599.599 0 0 0-.779.059L5.333 8.611a.599.599 0 0 0-.058.778l2.863 3.884c-.44.819-.795 1.678-1.058 2.563l-4.775.723a.598.598 0 0 0-.51.592v5.2c0 .296.217.547.51.591l4.798.726c.266.876.62 1.724 1.057 2.53l-2.886 3.914a.599.599 0 0 0 .06.778l3.676 3.677c.209.21.54.234.778.059l3.926-2.895c.803.431 1.646.78 2.514 1.04l.73 4.825c.044.293.296.509.592.509h5.2a.598.598 0 0 0 .591-.51l.73-4.823c.868-.26 1.71-.61 2.514-1.04l3.926 2.894a.6.6 0 0 0 .778-.059l3.678-3.677a.598.598 0 0 0 .058-.778l-2.885-3.913a13.54 13.54 0 0 0 1.056-2.53l4.799-.727a.598.598 0 0 0 .508-.591v-5.2a.598.598 0 0 0-.508-.592zm-.688 5.277-4.67.706a.6.6 0 0 0-.488.435 12.373 12.373 0 0 1-1.238 2.966.598.598 0 0 0 .036.655l2.809 3.81-2.95 2.95-3.821-2.818a.598.598 0 0 0-.653-.037c-.93.534-1.923.945-2.95 1.22a.599.599 0 0 0-.437.49l-.71 4.695h-4.171l-.71-4.695a.6.6 0 0 0-.437-.49 12.345 12.345 0 0 1-2.95-1.22.6.6 0 0 0-.654.037l-3.821 2.817-2.95-2.949 2.81-3.81a.599.599 0 0 0 .036-.655c-.54-.932-.957-1.93-1.238-2.966a.599.599 0 0 0-.489-.435l-4.67-.706v-4.17l4.65-.704a.598.598 0 0 0 .488-.438 12.356 12.356 0 0 1 1.237-2.998.599.599 0 0 0-.037-.654L6.543 9.093l2.949-2.949 3.768 2.778c.192.14.449.155.656.035a12.36 12.36 0 0 1 3.012-1.253.598.598 0 0 0 .437-.49l.699-4.62h4.17l.7 4.62a.598.598 0 0 0 .436.49c1.051.28 2.065.703 3.013 1.253.206.12.463.106.656-.035l3.768-2.778 2.949 2.95-2.786 3.778a.599.599 0 0 0-.037.654c.544.945.96 1.954 1.236 2.998.061.23.254.402.49.438l4.648.703v4.17z" fill="#000"/></svg>