<svg width="40" height="40" fill="none" xmlns="http://www.w3.org/2000/svg"><path d="M34 7.68a.58.58 0 0 0 0-.84l-.04-.04-3.48-2.68a.645.645 0 0 0-.36-.12H17c-.32 0-.6.28-.6.6V9c0 .32.28.6.6.6h3.64l-2.96 4.28c-.2.28-.12.64.16.84.28.2.64.12.84-.16l3.4-4.92 2.72 1.28v2.68h-1.32c-.2 0-.4.08-.48.28l-8.08 12c-.08.08-.12.2-.08.32v9.2c0 .32.28.6.6.6h16.4c.32 0 .6-.28.6-.6V14.2c0-.32-.28-.6-.6-.6H30.4v-2.28L34 7.68zM16 34.8v-7.6h15.2v7.6H16zM31.2 26H16.28l7.52-11.2h7.4V26zM26 13.6v-3.08c0-.24-.12-.44-.36-.52l-3.2-1.52c-.08-.04-.16-.04-.24-.04h-4.6V5.2h12.28l2.76 2.12-3.28 3.32c-.12.12-.16.28-.16.44v2.52H26zM12.6 8.8a1 1 0 1 0 0-2 1 1 0 0 0 0 2zM9 11.6a1 1 0 1 0 0-2 1 1 0 0 0 0 2zM9 6.4a1 1 0 1 0 0-2 1 1 0 0 0 0 2z" fill="#000"/></svg>