<svg width="40" height="40" fill="none" xmlns="http://www.w3.org/2000/svg"><path d="M33.936 30.196 22.5 18.348l6.996-6.996 1.272 1.272a.6.6 0 0 0 .432.176h.068a.6.6 0 0 0 .44-.28l2.608-4.172a.6.6 0 0 0-.092-.748L32.4 5.776a.6.6 0 0 0-.744-.084L27.484 8.3a.6.6 0 0 0-.108.932l1.272 1.272-6.98 6.98-5.328-5.516A6.132 6.132 0 0 0 9.1 3.6a.6.6 0 0 0-.272.996L11.324 7.2l-.652 2.296-2.304.58-2.492-2.58a.6.6 0 0 0-1.004.24 6.16 6.16 0 0 0 1.452 6.084 6.096 6.096 0 0 0 6.636 1.44l5.176 5.356-3.2 3.2-.856-.856a.6.6 0 0 0-.848 0L4.976 31.2a.6.6 0 0 0 0 .848l2.56 2.56a.6.6 0 0 0 .848 0l8.24-8.208a.6.6 0 0 0 0-.848l-.856-.872 3.2-3.2 11.6 12a2.336 2.336 0 0 0 1.656.72h.04a2.336 2.336 0 0 0 1.64-.668 2.368 2.368 0 0 0 .032-3.336zM31.888 6.96l1.152 1.152-1.956 3.128-2.324-2.324 3.128-1.956zM7.96 33.36l-1.712-1.72 7.392-7.392 1.712 1.712-7.392 7.4zm25.088-.68a1.16 1.16 0 0 1-.82.328 1.144 1.144 0 0 1-.8-.352L13.532 14.12a.6.6 0 0 0-.692-.12 4.9 4.9 0 0 1-5.64-1.02 4.957 4.957 0 0 1-1.372-3.824l1.932 2a.6.6 0 0 0 .58.164l2.976-.748a.6.6 0 0 0 .432-.4l.84-2.96a.6.6 0 0 0-.144-.58l-1.936-2a4.936 4.936 0 0 1 4.6 7.2.6.6 0 0 0 .092.672l17.872 18.524a1.168 1.168 0 0 1-.024 1.644v.008z" fill="#000"/></svg>