<svg width="40" height="40" fill="none" xmlns="http://www.w3.org/2000/svg"><path d="M33.671 27.064a.595.595 0 0 0-.4-.654L22.758 22.9l3.3-3.3a.596.596 0 0 0 0-.842l-6.219-6.219 1.18-1.181 1.823 1.822a.593.593 0 0 0 .843 0 .595.595 0 0 0 0-.842l-2.243-2.242v-.001h-.001l-2.2-2.201a.595.595 0 1 0-.842.842l1.78 1.78-1.181 1.181-6.636-6.635-4.045-4.045a.596.596 0 0 0-1.012.34L6.07 10.434c-.004.028-.003.056-.003.083l-2.67 2.671a.595.595 0 0 0 0 .843l13.696 13.696h.001a.59.59 0 0 0 .42.174h.013l15.569-.33a.596.596 0 0 0 .576-.506zM8.324 2.708 11.1 5.483l-3.651 3.65.875-6.425zm3.618 3.617 12.854 12.854-7.283 7.283L4.658 13.608l7.284-7.283zm7.04 20.353 2.836-2.836 7.819 2.61-10.655.226zM33.62 29.2a.596.596 0 0 0-1.076 0c-.413.865-2.474 5.25-2.474 6.647a3.015 3.015 0 0 0 3.012 3.012 3.015 3.015 0 0 0 3.011-3.012c0-1.397-2.06-5.782-2.474-6.647zm-.538 8.468a1.823 1.823 0 0 1-1.82-1.82c0-.716.968-3.091 1.82-4.976.852 1.885 1.82 4.26 1.82 4.975 0 1.004-.816 1.821-1.82 1.821z" fill="#000"/></svg>