<svg width="40" height="40" fill="none" xmlns="http://www.w3.org/2000/svg"><path d="M27.193 24.765a13.863 13.863 0 0 0-6.668-1.701c-7.693 0-13.951 6.262-13.944 13.956 0 .326.273.586.598.586h26.692c.325 0 .598-.26.598-.586.004-5.28-2.941-9.885-7.276-12.255zm-12.829 6.058h11.571v5.586h-11.57v-5.586zm11.571-5.291v4.094h-11.57v-3.79c0-.018-.005-.034-.006-.05a12.663 12.663 0 0 1 6.036-1.525c1.985 0 3.864.459 5.54 1.271zm-12.768.985v9.892H7.662c.19-4.1 2.329-7.696 5.505-9.892zm13.965 9.892V26.194c3.447 2.155 5.796 5.908 5.996 10.215h-5.996zM12.1 14.065h.19c.298 4.16 3.767 7.455 8 7.455 4.235 0 7.706-3.296 8.004-7.455h.19c.819 0 1.46-.815 1.46-1.854 0-.787-.368-1.443-.901-1.716a8.74 8.74 0 0 0-6.36-7.86A2.597 2.597 0 0 0 20.28 1.01c-1.09 0-2.025.678-2.407 1.634a8.74 8.74 0 0 0-6.33 7.85c-.534.274-.901.93-.901 1.717-.001 1.04.64 1.854 1.459 1.854zm8.19 6.258c-3.573 0-6.508-2.759-6.803-6.258h13.61c-.295 3.499-3.232 6.258-6.807 6.258zm8.196-7.455H12.097c-.06-.01-.263-.233-.263-.658 0-.27.081-.448.156-.552.04.008.08.013.123.013H28.47a.583.583 0 0 0 .122-.013.927.927 0 0 1 .156.552c0 .425-.202.648-.263.658zm-.769-2.394h-4.974V3.95a7.55 7.55 0 0 1 4.974 6.524zm-6.17-6.84v6.84h-2.794V3.603c0-.917.89-1.63 1.85-1.325.576.184.943.752.943 1.357zm-3.99.326v6.514h-4.948a7.55 7.55 0 0 1 4.947-6.514z" fill="#000"/></svg>