<svg width="40" height="40" fill="none" xmlns="http://www.w3.org/2000/svg"><path d="M23.472 15.728a.582.582 0 0 0 .152-.104l9.6-9.6a.6.6 0 0 0-.848-.848l-9.6 9.6a.59.59 0 0 0-.112.168C20.18 12.94 16.42 13.2 14 15.636L1.644 24.8a.6.6 0 0 0-.072.9l11.476 11.72a.599.599 0 0 0 .428.18h.048a.598.598 0 0 0 .444-.252l9.2-12.948A6.464 6.464 0 0 0 25 19.788a6.304 6.304 0 0 0-1.528-4.06zm-10.068 20.34-3.1-3.164a.574.574 0 0 0 .12-.08l5.6-5.6a.6.6 0 0 0-.848-.848l-5.6 5.6a.578.578 0 0 0-.072.112l-2.756-2.8a.558.558 0 0 0 .076-.052l5.6-5.6a.6.6 0 0 0-.848-.848l-5.6 5.6a.566.566 0 0 0-.044.064l-3.02-3.096L14.4 16.844l7.376 7.38h.024l-8.396 11.844zm9.132-12.8-7.2-7.2c2.092-1.704 5.08-1.7 6.932.104a5.116 5.116 0 0 1 1.548 3.628 5.26 5.26 0 0 1-1.28 3.488v-.02zM32.964 16.328a3.836 3.836 0 0 1 .4 3.412c-.8 2.192-3.392 3.38-5.792 2.64a.6.6 0 0 0-.352 1.148 6.11 6.11 0 0 0 1.8.268c2.4 0 4.668-1.416 5.476-3.652a5.028 5.028 0 0 0-.524-4.472.601.601 0 0 0-1.008.652v.004zM35.8 25.836a.601.601 0 0 0-.768.364 4.21 4.21 0 0 1-2.516 2.468c-2.312.888-4.996-.056-5.98-2.1a.6.6 0 1 0-1.08.52c.932 1.94 3.052 3.108 5.268 3.108a6.207 6.207 0 0 0 2.22-.4 5.403 5.403 0 0 0 3.2-3.2.6.6 0 0 0-.344-.76zM31.836 34.036a4.82 4.82 0 0 1-3.68.9 4.594 4.594 0 0 1-3.028-1.848 3.9 3.9 0 0 1-.66-2.98.599.599 0 0 0-1.093-.437.601.601 0 0 0-.087.217 5.088 5.088 0 0 0 .86 3.888 5.8 5.8 0 0 0 3.816 2.34c.323.053.65.08.976.08a6 6 0 0 0 3.624-1.2.6.6 0 1 0-.728-.952v-.008z" fill="#000"/></svg>