<svg width="20" height="20" fill="none" xmlns="http://www.w3.org/2000/svg"><path d="M10.319 10.815c-3.998 0-7.25 3.373-7.25 7.52 0 .165.134.3.299.3h13.901a.299.299 0 0 0 .299-.3c0-4.147-3.252-7.52-7.25-7.52zm-6.646 7.221c.151-3.679 3.074-6.624 6.646-6.624 3.571 0 6.494 2.945 6.645 6.624H3.674zM10.193 9.993c2.306 0 4.181-1.941 4.181-4.327s-1.875-4.328-4.18-4.328c-2.306 0-4.182 1.942-4.182 4.328s1.876 4.327 4.181 4.327zm0-8.057c1.976 0 3.584 1.673 3.584 3.73 0 2.056-1.608 3.73-3.584 3.73S6.61 7.721 6.61 5.665c0-2.057 1.607-3.73 3.583-3.73z" fill="#000"/></svg>