<svg width="20" height="20" fill="none" xmlns="http://www.w3.org/2000/svg"><path d="M18.778 3.66a.298.298 0 0 0-.226-.104H4.446L3.87 1.628a.3.3 0 0 0-.287-.213H1.378a.299.299 0 1 0 0 .598h1.983L6.995 14.19l.002.004.452 1.535a1.557 1.557 0 0 0-.462 1.108c0 .863.702 1.565 1.564 1.565.835 0 1.517-.66 1.559-1.485h3.918l-.002.033c0 .862.701 1.563 1.563 1.563s1.564-.701 1.564-1.563c0-.863-.702-1.564-1.564-1.564-.637 0-1.186.384-1.429.933h-4.136a1.555 1.555 0 0 0-1.472-1.046c-.206 0-.401.041-.58.113l-.29-.983h9.302a.299.299 0 0 0 .295-.254L18.847 3.9a.299.299 0 0 0-.069-.24zM15.59 15.985a.967.967 0 0 1 0 1.932.967.967 0 0 1 0-1.932zm-7.038-.112c.258 0 .5.1.682.282a.967.967 0 0 1-.682 1.65.967.967 0 0 1 0-1.933zm8.176-2.066h-9.22l-.566-1.923a.297.297 0 0 0-.03-.068L4.624 4.154h13.58l-1.477 9.652z" fill="#000"/></svg>