<svg width="181" height="40" fill="none" xmlns="http://www.w3.org/2000/svg"><rect x=".5" y=".5" width="180" height="39" rx="3.5" stroke="#000"/><path d="M30.76 21.06h3.28c-.36 1.28-1.033 2.433-2.02 3.46-.547.587-1.26 1.047-2.14 1.38-.88.333-1.867.5-2.96.5-1.96 0-3.427-.527-4.4-1.58-.987-1.067-1.48-2.44-1.48-4.12 0-1.52.327-3.033.98-4.54a9.298 9.298 0 0 1 1.44-2.26c.627-.68 1.433-1.233 2.42-1.66 1-.427 2.093-.64 3.28-.64 1.107 0 2.093.14 2.96.42 1.773.52 2.687 1.76 2.74 3.72 0 .467-.02.807-.06 1.02h-3.26a.586.586 0 0 0 .02-.2v-.22c0-1.347-.847-2.02-2.54-2.02-.627 0-1.2.14-1.72.42-.52.267-.947.613-1.28 1.04-.32.413-.593.887-.82 1.42a8.21 8.21 0 0 0-.46 1.56c-.093.493-.14.973-.14 1.44 0 1.187.253 2.073.76 2.66.56.587 1.193.86 1.9.82 1.667 0 2.833-.873 3.5-2.62zm12.65-3.18h-3.92L37.75 26h-3.04l2.18-10.16h10L44.71 26h-3.04l1.74-8.12zm2.781 8.16.46-2.1c.294.027.447.04.46.04.64 0 1.154-.253 1.54-.76.387-.533.76-1.547 1.12-3.04l1-4.34h8.68L57.271 26h-3.04l1.74-8.12h-2.74l-.5 2.28c-.426 1.96-.98 3.44-1.66 4.44-.32.44-.666.773-1.04 1-.653.373-1.466.56-2.44.56-.466 0-.933-.04-1.4-.12zm18.759-10.2-1.42 6.6 5.16-6.6h3.6L70.11 26h-3.04l1.42-6.6-5.16 6.6h-3.6l2.18-10.16h3.04zM74.942 26l1.74-8.12h-3.36l.44-2.04h9.76l-.44 2.04h-3.36L77.982 26h-3.04zm13.078.38c-1.547 0-2.74-.347-3.58-1.04-.933-.88-1.387-2.047-1.36-3.5 0-.52.06-1.053.18-1.6.133-.547.36-1.107.68-1.68A6.495 6.495 0 0 1 85.12 17c.48-.453 1.1-.82 1.86-1.1.773-.293 1.633-.44 2.58-.44.973 0 1.82.153 2.54.46 1.613.627 2.42 1.993 2.42 4.1 0 1.107-.24 2.127-.72 3.06-.493.96-1.24 1.747-2.24 2.36-1.013.627-2.193.94-3.54.94zm.32-2.04c.96 0 1.7-.433 2.22-1.3.533-.853.8-1.927.8-3.22 0-1.547-.7-2.32-2.1-2.32-.72 0-1.32.26-1.8.78-.813.893-1.22 2.16-1.22 3.8 0 1.507.7 2.26 2.1 2.26zm7.937-5.4.68-3.1h3.04l-.64 2.96c-.053.173-.08.367-.08.58.04.387.174.633.4.74.227.093.614.133 1.16.12.574 0 1.054-.027 1.44-.08l.92-4.32h3.04L104.077 26h-3.04l.8-3.8c-.013 0-.053.007-.12.02-.053 0-.146.007-.28.02h-.38c-.64.027-1.033.04-1.18.04-1.653 0-2.713-.247-3.18-.74-.347-.413-.52-.927-.52-1.54 0-.347.033-.7.1-1.06zm14.51 1.06h.04l3.94-4.16h3.48l-5.06 4.98 3.12 5.18h-3.42l-2.36-4.5h-.06l-.9 4.5h-3.04l2.18-10.16h3.04l-.96 4.16zm11.062-.88h-3.18c.653-2.44 2.567-3.66 5.74-3.66 2.72 0 4.08.893 4.08 2.68 0 .173-.06.547-.18 1.12l-1.02 4.64c-.12.48-.18.873-.18 1.18 0 .413.113.633.34.66V26h-3.18l-.06-1h-.06c-.96.92-2.127 1.38-3.5 1.38a4.909 4.909 0 0 1-1.98-.4c-.8-.36-1.2-1.08-1.2-2.16 0-1.24.48-2.14 1.44-2.7a5.736 5.736 0 0 1 1.86-.72c.427-.107.733-.167.92-.18.24-.04.533-.08.88-.12l.66-.06a12.63 12.63 0 0 0 1.1-.18c.267-.067.513-.213.74-.44.173-.173.26-.493.26-.96 0-.64-.427-.96-1.28-.96-1.253 0-1.987.54-2.2 1.62zm2.92 2.68.16-.64c-.28.133-.993.313-2.14.54a4.936 4.936 0 0 0-1.38.46c-.52.267-.78.707-.78 1.32 0 .573.46.86 1.38.86.373 0 .733-.08 1.08-.24.347-.16.613-.347.8-.56.227-.267.393-.513.5-.74.173-.32.3-.653.38-1zm8.868 4.2h-3.3l.68-3.16h3.3l-.68 3.16zm2.715 3.7 2.98-13.86h2.68l-.24 1.04h.06c.987-.947 2.18-1.42 3.58-1.42 1.254 0 2.187.387 2.8 1.16.627.773.94 1.733.94 2.88a7.88 7.88 0 0 1-.86 3.6 6.657 6.657 0 0 1-1.1 1.64c-.426.467-.966.853-1.62 1.16a5.162 5.162 0 0 1-2.14.44c-1.466 0-2.473-.46-3.02-1.38l-1.02 4.74h-3.04zm4.74-8.94c-.093.413-.14.807-.14 1.18 0 .72.167 1.293.5 1.72.334.427.814.64 1.44.64.667 0 1.254-.253 1.76-.76.894-.933 1.34-2.16 1.34-3.68 0-.827-.186-1.427-.56-1.8-.36-.373-.826-.56-1.4-.56-.6 0-1.18.24-1.74.72-.56.453-.96 1.3-1.2 2.54zm8.675 8.94.44-2.04c.173.093.493.14.96.14.493 0 .873-.153 1.14-.46.2-.227.406-.547.62-.96l.28-.5-2.32-10.04h3.26l1.34 6.88 3.26-6.88h3.22l-5.8 10.7c-.68 1.213-1.32 2.073-1.92 2.58-.614.507-1.407.76-2.38.76-.92 0-1.62-.06-2.1-.18z" fill="#161616"/></svg>