<svg width="20" height="20" fill="none" xmlns="http://www.w3.org/2000/svg"><path d="M1.448 15.191a.295.295 0 0 1-.016-.091V4.512c0-.033.006-.063.016-.092l.004-.012a.297.297 0 0 1 .055-.092l.003-.006.003-.002a.3.3 0 0 1 .088-.065.295.295 0 0 1 .109-.029h.01l.01-.001h16.593l.01.002c.036.002.07.01.103.025.002 0 .003.002.005.003a.296.296 0 0 1 .09.065l.003.002.003.006a.298.298 0 0 1 .055.092l.004.012c.01.029.016.06.016.092V15.1a.294.294 0 0 1-.016.093l-.004.012a.298.298 0 0 1-.056.092l-.003.005-.004.004a.3.3 0 0 1-.032.028l-.014.012a.275.275 0 0 1-.042.023l-.01.006a.3.3 0 0 1-.118.024H1.731a.297.297 0 0 1-.117-.024l-.017-.009a.29.29 0 0 1-.036-.02c-.006-.005-.01-.01-.017-.014a.274.274 0 0 1-.029-.026l-.005-.004-.003-.006a.298.298 0 0 1-.055-.092l-.004-.013zM18.014 5.19l-5.032 4.596 5.032 4.632V5.19zM7.701 9.56c.021.014.043.025.06.045.007.007.009.016.015.024l2.246 2.051 7.52-6.87H2.502l5.2 4.75zm4.838.63-2.315 2.116a.298.298 0 0 1-.404 0l-2.287-2.09-5.03 4.585h15.044l-5.008-4.61zM7.09 9.812 2.03 5.19v9.233l5.06-4.611z" fill="#000"/></svg>