<svg width="20" height="20" fill="none" xmlns="http://www.w3.org/2000/svg"><path d="M7.875 17.067c.792.444 1.572.667 2.3.667.608 0 1.179-.157 1.687-.47l1.873-1.156a.299.299 0 0 0 .098-.412l-1.624-2.631a.3.3 0 0 0-.412-.097L9.91 14.133a1.39 1.39 0 0 1-1.02.157 1.31 1.31 0 0 1-.84-.57L5.486 9.562A1.283 1.283 0 0 1 5.902 7.8l1.96-1.21a.299.299 0 0 0 .096-.411L6.335 3.548a.299.299 0 0 0-.412-.098L3.966 4.66c-2.182 1.346-2.105 4.88.186 8.595 1.051 1.703 2.373 3.057 3.723 3.813zM4.28 5.167l1.703-1.05 1.31 2.121-1.705 1.053a1.881 1.881 0 0 0-.611 2.585l2.565 4.157c.26.42.704.727 1.219.84a1.994 1.994 0 0 0 1.463-.232l1.633-1.008 1.31 2.123-1.62.998c-1.181.73-2.49.29-3.38-.209-1.262-.707-2.508-1.987-3.506-3.605-2.106-3.415-2.263-6.611-.38-7.773zM9.88 6.687a2.983 2.983 0 0 1 2.35 1.364c.503.771.624 1.717.332 2.594a.299.299 0 1 0 .567.19 3.59 3.59 0 0 0-.397-3.11A3.622 3.622 0 0 0 9.916 6.09a.299.299 0 0 0-.035.597z" fill="#000"/><path d="M10.3 4.468a5.256 5.256 0 0 1 4.461 6.675.299.299 0 1 0 .574.165 5.854 5.854 0 0 0-4.967-7.434.299.299 0 1 0-.068.594z" fill="#000"/><path d="M10.709 2.514a7.24 7.24 0 0 1 5.075 3.226 7.26 7.26 0 0 1 .923 5.84.299.299 0 1 0 .578.155 7.858 7.858 0 0 0-1-6.321 7.838 7.838 0 0 0-5.494-3.493.299.299 0 1 0-.083.592z" fill="#000"/></svg>