<svg width="40" height="40" fill="none" xmlns="http://www.w3.org/2000/svg"><g clip-path="url(#a)"><path fill-rule="evenodd" clip-rule="evenodd" d="M20 40c11.046 0 20-8.954 20-20S31.046 0 20 0 0 8.954 0 20s8.954 20 20 20zm8.79-27.222c.155-1.752-1.695-1.03-1.695-1.03-1.366.565-2.775 1.14-4.2 1.72-4.415 1.801-8.976 3.662-12.863 5.493-2.107.773-.873 1.546-.873 1.546l3.34 1.031c1.542.464 2.364-.052 2.364-.052l7.195-4.895c2.57-1.752 1.953-.31 1.337.31l-5.397 5.152c-.822.722-.41 1.34-.051 1.65 1.02.899 3.528 2.545 4.623 3.263.285.187.474.311.516.343.257.207 1.645 1.134 2.57.928.925-.206 1.028-1.391 1.028-1.391l1.233-8.09c.185-1.405.397-2.755.567-3.833.16-1.019.282-1.795.307-2.145z" fill="#F1F1F1"/></g><defs><clipPath id="a"><path fill="#fff" d="M0 0h40v40H0z"/></clipPath></defs></svg>