<svg width="40" height="40" fill="none" xmlns="http://www.w3.org/2000/svg"><g clip-path="url(#a)"><path fill-rule="evenodd" clip-rule="evenodd" d="M20 40c11.046 0 20-8.954 20-20S31.046 0 20 0 0 8.954 0 20s8.954 20 20 20zm7.905-28.403A10.83 10.83 0 0 0 20.193 8.4c-6.008 0-10.9 4.89-10.901 10.9-.001 1.922.5 3.798 1.455 5.45L9.2 30.4l5.78-1.516a10.89 10.89 0 0 0 5.209 1.327h.004c6.008 0 10.899-4.89 10.901-10.901a10.831 10.831 0 0 0-3.189-7.713zM20.194 28.37h-.004a9.049 9.049 0 0 1-4.612-1.263l-.33-.197-3.43.9.915-3.344-.216-.343a9.04 9.04 0 0 1-1.385-4.822c.002-4.996 4.067-9.06 9.065-9.06a9 9 0 0 1 6.406 2.657 9.006 9.006 0 0 1 2.651 6.41c-.002 4.997-4.066 9.062-9.06 9.062zm4.97-6.787c-.273-.136-1.612-.795-1.862-.886-.25-.09-.431-.136-.613.137-.181.273-.703.886-.862 1.068-.16.182-.318.204-.59.068-.045-.022-.106-.049-.18-.081-.384-.167-1.14-.495-2.011-1.271-.81-.723-1.356-1.615-1.515-1.887-.16-.273-.017-.42.119-.556.082-.082.176-.196.27-.31l.138-.167c.116-.135.166-.237.234-.376l.039-.078c.09-.182.045-.341-.023-.478-.045-.09-.303-.72-.537-1.29l-.303-.732c-.195-.47-.393-.468-.552-.467h-.06a10.79 10.79 0 0 0-.523-.01 1 1 0 0 0-.726.34l-.054.058c-.284.303-.9.96-.9 2.215 0 1.338.972 2.63 1.112 2.816l.001.002.047.067c.325.466 2.052 2.943 4.606 4.046.65.28 1.157.448 1.553.573.653.208 1.246.179 1.716.108.523-.078 1.611-.658 1.838-1.294.227-.637.227-1.182.16-1.296-.055-.092-.184-.154-.375-.246l-.148-.072z" fill="#F1F1F1"/></g><defs><clipPath id="a"><path fill="#fff" d="M0 0h40v40H0z"/></clipPath></defs></svg>